<mxfile host="app.diagrams.net" modified="2023-04-19T08:52:00.787Z" agent="Mozilla/5.0 (Windows NT 10.0; Win64; x64) AppleWebKit/537.36 (KHTML, like Gecko) Chrome/111.0.0.0 Safari/537.36" etag="3JUhhcGegZZzzNO6hDV4" version="21.1.0" type="github">
  <diagram id="C5RBs43oDa-KdzZeNtuy" name="Page-1">
    <mxGraphModel dx="846" dy="546" grid="1" gridSize="10" guides="1" tooltips="1" connect="1" arrows="1" fold="1" page="1" pageScale="1" pageWidth="827" pageHeight="1169" math="0" shadow="0">
      <root>
        <mxCell id="WIyWlLk6GJQsqaUBKTNV-0" />
        <mxCell id="WIyWlLk6GJQsqaUBKTNV-1" parent="WIyWlLk6GJQsqaUBKTNV-0" />
        <mxCell id="9mtY81VaupOErwktvLHW-19" style="edgeStyle=orthogonalEdgeStyle;rounded=0;orthogonalLoop=1;jettySize=auto;html=1;entryX=0;entryY=0.5;entryDx=0;entryDy=0;" edge="1" parent="WIyWlLk6GJQsqaUBKTNV-1" source="9mtY81VaupOErwktvLHW-2" target="9mtY81VaupOErwktvLHW-5">
          <mxGeometry relative="1" as="geometry">
            <Array as="points">
              <mxPoint x="370" y="316" />
            </Array>
          </mxGeometry>
        </mxCell>
        <mxCell id="9mtY81VaupOErwktvLHW-2" value="查询终端" style="image;aspect=fixed;perimeter=ellipsePerimeter;html=1;align=center;shadow=0;dashed=0;spacingTop=3;image=img/lib/active_directory/laptop_client.svg;" vertex="1" parent="WIyWlLk6GJQsqaUBKTNV-1">
          <mxGeometry x="292" y="390" width="108" height="120" as="geometry" />
        </mxCell>
        <mxCell id="9mtY81VaupOErwktvLHW-8" style="edgeStyle=orthogonalEdgeStyle;rounded=0;orthogonalLoop=1;jettySize=auto;html=1;entryX=0;entryY=0.5;entryDx=0;entryDy=0;" edge="1" parent="WIyWlLk6GJQsqaUBKTNV-1" source="9mtY81VaupOErwktvLHW-3" target="9mtY81VaupOErwktvLHW-7">
          <mxGeometry relative="1" as="geometry">
            <Array as="points" />
          </mxGeometry>
        </mxCell>
        <mxCell id="9mtY81VaupOErwktvLHW-3" value="服务器" style="image;aspect=fixed;perimeter=ellipsePerimeter;html=1;align=center;shadow=0;dashed=0;spacingTop=3;image=img/lib/active_directory/database_server.svg;" vertex="1" parent="WIyWlLk6GJQsqaUBKTNV-1">
          <mxGeometry x="121.60000000000002" y="120" width="98.4" height="120" as="geometry" />
        </mxCell>
        <mxCell id="9mtY81VaupOErwktvLHW-10" style="edgeStyle=orthogonalEdgeStyle;rounded=0;orthogonalLoop=1;jettySize=auto;html=1;exitX=0.5;exitY=0;exitDx=0;exitDy=0;" edge="1" parent="WIyWlLk6GJQsqaUBKTNV-1" source="9mtY81VaupOErwktvLHW-5" target="9mtY81VaupOErwktvLHW-6">
          <mxGeometry relative="1" as="geometry" />
        </mxCell>
        <mxCell id="9mtY81VaupOErwktvLHW-17" style="edgeStyle=orthogonalEdgeStyle;rounded=0;orthogonalLoop=1;jettySize=auto;html=1;entryX=0.5;entryY=0;entryDx=0;entryDy=0;" edge="1" parent="WIyWlLk6GJQsqaUBKTNV-1" source="9mtY81VaupOErwktvLHW-5" target="9mtY81VaupOErwktvLHW-11">
          <mxGeometry relative="1" as="geometry" />
        </mxCell>
        <mxCell id="9mtY81VaupOErwktvLHW-5" value="路由器&lt;br&gt;" style="image;aspect=fixed;perimeter=ellipsePerimeter;html=1;align=center;shadow=0;dashed=0;spacingTop=3;image=img/lib/active_directory/router.svg;" vertex="1" parent="WIyWlLk6GJQsqaUBKTNV-1">
          <mxGeometry x="419.55" y="282" width="89.47" height="68" as="geometry" />
        </mxCell>
        <mxCell id="9mtY81VaupOErwktvLHW-6" value="互联网" style="image;aspect=fixed;perimeter=ellipsePerimeter;html=1;align=center;shadow=0;dashed=0;spacingTop=3;image=img/lib/active_directory/internet_cloud.svg;" vertex="1" parent="WIyWlLk6GJQsqaUBKTNV-1">
          <mxGeometry x="400" y="139.89" width="128.57" height="81" as="geometry" />
        </mxCell>
        <mxCell id="9mtY81VaupOErwktvLHW-9" style="edgeStyle=orthogonalEdgeStyle;rounded=0;orthogonalLoop=1;jettySize=auto;html=1;" edge="1" parent="WIyWlLk6GJQsqaUBKTNV-1" source="9mtY81VaupOErwktvLHW-7" target="9mtY81VaupOErwktvLHW-6">
          <mxGeometry relative="1" as="geometry" />
        </mxCell>
        <mxCell id="9mtY81VaupOErwktvLHW-7" value="防火墙&lt;br&gt;" style="image;aspect=fixed;perimeter=ellipsePerimeter;html=1;align=center;shadow=0;dashed=0;spacingTop=3;image=img/lib/active_directory/firewall.svg;" vertex="1" parent="WIyWlLk6GJQsqaUBKTNV-1">
          <mxGeometry x="290" y="136.79" width="53.2" height="87.21" as="geometry" />
        </mxCell>
        <mxCell id="9mtY81VaupOErwktvLHW-16" value="" style="group" vertex="1" connectable="0" parent="WIyWlLk6GJQsqaUBKTNV-1">
          <mxGeometry x="530" y="380" width="220" height="220" as="geometry" />
        </mxCell>
        <mxCell id="9mtY81VaupOErwktvLHW-11" value="柜体" style="whiteSpace=wrap;html=1;aspect=fixed;fillColor=none;strokeColor=#d79b00;labelPosition=center;verticalLabelPosition=bottom;align=center;verticalAlign=top;" vertex="1" parent="9mtY81VaupOErwktvLHW-16">
          <mxGeometry width="220" height="220" as="geometry" />
        </mxCell>
        <mxCell id="9mtY81VaupOErwktvLHW-0" value="" style="image;aspect=fixed;perimeter=ellipsePerimeter;html=1;align=center;shadow=0;dashed=0;spacingTop=3;image=img/lib/active_directory/mainframe.svg;" vertex="1" parent="9mtY81VaupOErwktvLHW-16">
          <mxGeometry x="17.629999999999995" y="25" width="94.73" height="90" as="geometry" />
        </mxCell>
        <mxCell id="9mtY81VaupOErwktvLHW-12" value="" style="image;aspect=fixed;perimeter=ellipsePerimeter;html=1;align=center;shadow=0;dashed=0;spacingTop=3;image=img/lib/active_directory/mainframe.svg;" vertex="1" parent="9mtY81VaupOErwktvLHW-16">
          <mxGeometry x="17.629999999999995" y="130" width="94.73" height="90" as="geometry" />
        </mxCell>
        <mxCell id="9mtY81VaupOErwktvLHW-13" value="" style="image;aspect=fixed;perimeter=ellipsePerimeter;html=1;align=center;shadow=0;dashed=0;spacingTop=3;image=img/lib/active_directory/mainframe.svg;" vertex="1" parent="9mtY81VaupOErwktvLHW-16">
          <mxGeometry x="122.36000000000001" y="130" width="94.73" height="90" as="geometry" />
        </mxCell>
        <mxCell id="9mtY81VaupOErwktvLHW-15" value="" style="image;aspect=fixed;perimeter=ellipsePerimeter;html=1;align=center;shadow=0;dashed=0;spacingTop=3;image=img/lib/active_directory/mainframe.svg;" vertex="1" parent="9mtY81VaupOErwktvLHW-16">
          <mxGeometry x="122.36000000000001" y="25" width="94.73" height="90" as="geometry" />
        </mxCell>
        <mxCell id="9mtY81VaupOErwktvLHW-21" value="" style="shape=ext;double=1;rounded=0;whiteSpace=wrap;html=1;align=left;labelPosition=left;verticalLabelPosition=middle;verticalAlign=middle;" vertex="1" parent="WIyWlLk6GJQsqaUBKTNV-1">
          <mxGeometry x="40" y="660" width="480" height="240" as="geometry" />
        </mxCell>
      </root>
    </mxGraphModel>
  </diagram>
</mxfile>
